<mxfile host="app.diagrams.net" modified="2020-08-18T13:54:38.987Z" agent="5.0 (Windows NT 10.0; Win64; x64) AppleWebKit/537.36 (KHTML, like Gecko) Chrome/84.0.4147.125 Safari/537.36" etag="4Fs17oCnEGwj0wuwMebr" version="13.6.1" type="github">
  <diagram id="VegKHhS0JTL4Sjs189KD" name="architectureDiagram">
    <mxGraphModel dx="868" dy="482" grid="1" gridSize="10" guides="1" tooltips="1" connect="1" arrows="1" fold="1" page="1" pageScale="1" pageWidth="850" pageHeight="1100" math="0" shadow="0">
      <root>
        <mxCell id="0" />
        <mxCell id="1" parent="0" />
        <mxCell id="wyOFEcVmKxUqtL-a4l7G-1" value="CDS" style="rounded=0;whiteSpace=wrap;html=1;" parent="1" vertex="1">
          <mxGeometry x="245" y="55" width="310" height="70" as="geometry" />
        </mxCell>
        <mxCell id="wyOFEcVmKxUqtL-a4l7G-2" value="Business Users&lt;br&gt;" style="rounded=0;whiteSpace=wrap;html=1;" parent="1" vertex="1">
          <mxGeometry x="10" y="55" width="110" height="55" as="geometry" />
        </mxCell>
        <mxCell id="wyOFEcVmKxUqtL-a4l7G-3" value="" style="whiteSpace=wrap;html=1;aspect=fixed;fillColor=#FFFF33;" parent="1" vertex="1">
          <mxGeometry x="176" y="190" width="480" height="480" as="geometry" />
        </mxCell>
        <mxCell id="wyOFEcVmKxUqtL-a4l7G-4" value="Issuance&lt;br&gt;UI&lt;br&gt;" style="rounded=0;whiteSpace=wrap;html=1;" parent="1" vertex="1">
          <mxGeometry x="200" y="270" width="80" height="30" as="geometry" />
        </mxCell>
        <mxCell id="wyOFEcVmKxUqtL-a4l7G-5" value="FileMapper UI" style="rounded=0;whiteSpace=wrap;html=1;" parent="1" vertex="1">
          <mxGeometry x="361" y="260" width="100" height="30" as="geometry" />
        </mxCell>
        <mxCell id="R-JWVIQQPmjsD5FYwSrT-2" value="oracle database&amp;nbsp;" style="rounded=0;whiteSpace=wrap;html=1;" parent="1" vertex="1">
          <mxGeometry x="211" y="570" width="400" height="60" as="geometry" />
        </mxCell>
        <mxCell id="R-JWVIQQPmjsD5FYwSrT-3" value="Accounts Bank UI" style="rounded=0;whiteSpace=wrap;html=1;" parent="1" vertex="1">
          <mxGeometry x="520" y="460" width="90" height="30" as="geometry" />
        </mxCell>
        <mxCell id="R-JWVIQQPmjsD5FYwSrT-4" value="PPA UI" style="rounded=0;whiteSpace=wrap;html=1;" parent="1" vertex="1">
          <mxGeometry x="525" y="260" width="80" height="30" as="geometry" />
        </mxCell>
        <mxCell id="R-JWVIQQPmjsD5FYwSrT-5" value="Rate Fix UI" style="rounded=0;whiteSpace=wrap;html=1;" parent="1" vertex="1">
          <mxGeometry x="205" y="470" width="75" height="20" as="geometry" />
        </mxCell>
        <mxCell id="R-JWVIQQPmjsD5FYwSrT-6" value="Depository UI" style="rounded=0;whiteSpace=wrap;html=1;" parent="1" vertex="1">
          <mxGeometry x="355" y="470" width="110" height="20" as="geometry" />
        </mxCell>
        <mxCell id="R-JWVIQQPmjsD5FYwSrT-9" value="Portal (Landing page)&amp;nbsp;" style="text;html=1;resizable=0;autosize=1;align=center;verticalAlign=middle;points=[];fillColor=none;strokeColor=none;rounded=0;" parent="1" vertex="1">
          <mxGeometry x="336" y="230" width="130" height="20" as="geometry" />
        </mxCell>
        <mxCell id="R-JWVIQQPmjsD5FYwSrT-12" value="" style="endArrow=classic;startArrow=classic;html=1;" parent="1" source="R-JWVIQQPmjsD5FYwSrT-9" target="wyOFEcVmKxUqtL-a4l7G-1" edge="1">
          <mxGeometry width="50" height="50" relative="1" as="geometry">
            <mxPoint x="385" y="175" as="sourcePoint" />
            <mxPoint x="435" y="125" as="targetPoint" />
          </mxGeometry>
        </mxCell>
        <mxCell id="R-JWVIQQPmjsD5FYwSrT-14" value="" style="endArrow=classic;startArrow=classic;html=1;exitX=1;exitY=0.5;exitDx=0;exitDy=0;entryX=0.003;entryY=0.4;entryDx=0;entryDy=0;entryPerimeter=0;" parent="1" source="wyOFEcVmKxUqtL-a4l7G-2" target="wyOFEcVmKxUqtL-a4l7G-1" edge="1">
          <mxGeometry width="50" height="50" relative="1" as="geometry">
            <mxPoint x="165" y="115" as="sourcePoint" />
            <mxPoint x="240" y="110" as="targetPoint" />
          </mxGeometry>
        </mxCell>
        <mxCell id="R-JWVIQQPmjsD5FYwSrT-16" value="Issuance&lt;br&gt;API" style="rounded=0;whiteSpace=wrap;html=1;" parent="1" vertex="1">
          <mxGeometry x="200" y="330" width="80" height="30" as="geometry" />
        </mxCell>
        <mxCell id="R-JWVIQQPmjsD5FYwSrT-18" value="Rate Fix API" style="rounded=0;whiteSpace=wrap;html=1;" parent="1" vertex="1">
          <mxGeometry x="205" y="520" width="75" height="20" as="geometry" />
        </mxCell>
        <mxCell id="R-JWVIQQPmjsD5FYwSrT-19" value="Depository API" style="rounded=0;whiteSpace=wrap;html=1;" parent="1" vertex="1">
          <mxGeometry x="356" y="520" width="110" height="20" as="geometry" />
        </mxCell>
        <mxCell id="R-JWVIQQPmjsD5FYwSrT-21" value="Accounts Bank API&lt;br&gt;" style="rounded=0;whiteSpace=wrap;html=1;" parent="1" vertex="1">
          <mxGeometry x="515" y="515" width="90" height="30" as="geometry" />
        </mxCell>
        <mxCell id="R-JWVIQQPmjsD5FYwSrT-22" value="FileMapper API" style="rounded=0;whiteSpace=wrap;html=1;" parent="1" vertex="1">
          <mxGeometry x="361" y="330" width="100" height="30" as="geometry" />
        </mxCell>
        <mxCell id="R-JWVIQQPmjsD5FYwSrT-24" value="PPA API" style="rounded=0;whiteSpace=wrap;html=1;" parent="1" vertex="1">
          <mxGeometry x="525" y="330" width="80" height="30" as="geometry" />
        </mxCell>
        <mxCell id="R-JWVIQQPmjsD5FYwSrT-26" value="" style="endArrow=classic;startArrow=classic;html=1;entryX=0.5;entryY=1;entryDx=0;entryDy=0;exitX=0.5;exitY=0;exitDx=0;exitDy=0;" parent="1" source="R-JWVIQQPmjsD5FYwSrT-22" target="wyOFEcVmKxUqtL-a4l7G-5" edge="1">
          <mxGeometry width="50" height="50" relative="1" as="geometry">
            <mxPoint x="400" y="350" as="sourcePoint" />
            <mxPoint x="410" y="340" as="targetPoint" />
          </mxGeometry>
        </mxCell>
        <mxCell id="R-JWVIQQPmjsD5FYwSrT-27" value="" style="endArrow=classic;startArrow=classic;html=1;entryX=0.5;entryY=1;entryDx=0;entryDy=0;exitX=0.5;exitY=0;exitDx=0;exitDy=0;" parent="1" edge="1">
          <mxGeometry width="50" height="50" relative="1" as="geometry">
            <mxPoint x="239.5" y="330" as="sourcePoint" />
            <mxPoint x="239.5" y="300" as="targetPoint" />
          </mxGeometry>
        </mxCell>
        <mxCell id="R-JWVIQQPmjsD5FYwSrT-28" value="" style="endArrow=classic;startArrow=classic;html=1;entryX=0.5;entryY=1;entryDx=0;entryDy=0;" parent="1" target="R-JWVIQQPmjsD5FYwSrT-4" edge="1">
          <mxGeometry width="50" height="50" relative="1" as="geometry">
            <mxPoint x="565" y="330" as="sourcePoint" />
            <mxPoint x="564.5" y="310" as="targetPoint" />
          </mxGeometry>
        </mxCell>
        <mxCell id="R-JWVIQQPmjsD5FYwSrT-29" value="" style="endArrow=classic;startArrow=classic;html=1;entryX=0.5;entryY=1;entryDx=0;entryDy=0;exitX=0.5;exitY=0;exitDx=0;exitDy=0;" parent="1" edge="1">
          <mxGeometry width="50" height="50" relative="1" as="geometry">
            <mxPoint x="237" y="520" as="sourcePoint" />
            <mxPoint x="237" y="490" as="targetPoint" />
          </mxGeometry>
        </mxCell>
        <mxCell id="R-JWVIQQPmjsD5FYwSrT-30" value="" style="endArrow=classic;startArrow=classic;html=1;entryX=0.5;entryY=1;entryDx=0;entryDy=0;" parent="1" edge="1">
          <mxGeometry width="50" height="50" relative="1" as="geometry">
            <mxPoint x="410" y="520" as="sourcePoint" />
            <mxPoint x="409.5" y="490" as="targetPoint" />
            <Array as="points">
              <mxPoint x="410" y="500" />
            </Array>
          </mxGeometry>
        </mxCell>
        <mxCell id="R-JWVIQQPmjsD5FYwSrT-31" value="" style="endArrow=classic;startArrow=classic;html=1;entryX=0.5;entryY=1;entryDx=0;entryDy=0;exitX=0.5;exitY=0;exitDx=0;exitDy=0;" parent="1" edge="1">
          <mxGeometry width="50" height="50" relative="1" as="geometry">
            <mxPoint x="564.5" y="520" as="sourcePoint" />
            <mxPoint x="564.5" y="490" as="targetPoint" />
          </mxGeometry>
        </mxCell>
        <mxCell id="R-JWVIQQPmjsD5FYwSrT-39" value="" style="endArrow=none;dashed=1;html=1;dashPattern=1 3;strokeWidth=2;entryX=0;entryY=0.25;entryDx=0;entryDy=0;" parent="1" target="R-JWVIQQPmjsD5FYwSrT-22" edge="1">
          <mxGeometry width="50" height="50" relative="1" as="geometry">
            <mxPoint x="280" y="340" as="sourcePoint" />
            <mxPoint x="330" y="290" as="targetPoint" />
          </mxGeometry>
        </mxCell>
        <mxCell id="R-JWVIQQPmjsD5FYwSrT-42" value="Service Registry" style="rounded=0;whiteSpace=wrap;html=1;fillColor=#ffffff;" parent="1" vertex="1">
          <mxGeometry x="200" y="380" width="400" height="60" as="geometry" />
        </mxCell>
      </root>
    </mxGraphModel>
  </diagram>
</mxfile>
